<mxfile host="app.diagrams.net" modified="2023-05-25T16:19:05.989Z" agent="Mozilla/5.0 (Macintosh; Intel Mac OS X 10_15_7) AppleWebKit/537.36 (KHTML, like Gecko) Chrome/113.0.0.0 Safari/537.36" etag="nvqju8I_1OnMaxUYoO3F" version="21.3.4" type="github">
  <diagram name="Pagina-1" id="DSvQp3ehKlJsZnQI1OmQ">
    <mxGraphModel dx="1052" dy="533" grid="1" gridSize="10" guides="1" tooltips="1" connect="1" arrows="1" fold="1" page="1" pageScale="1" pageWidth="827" pageHeight="1169" math="0" shadow="0">
      <root>
        <mxCell id="0" />
        <mxCell id="1" parent="0" />
        <mxCell id="R6HIY-eFZEAgRL6mTNRM-78" value="Auto Usate" style="shape=table;startSize=30;container=1;collapsible=1;childLayout=tableLayout;fixedRows=1;rowLines=1;fontStyle=1;align=center;resizeLast=1;html=1;" vertex="1" parent="1">
          <mxGeometry x="20" y="200" width="779" height="180" as="geometry" />
        </mxCell>
        <mxCell id="R6HIY-eFZEAgRL6mTNRM-79" value="" style="shape=tableRow;horizontal=0;startSize=0;swimlaneHead=0;swimlaneBody=0;fillColor=none;collapsible=0;dropTarget=0;points=[[0,0.5],[1,0.5]];portConstraint=eastwest;top=0;left=0;right=0;bottom=1;" vertex="1" parent="R6HIY-eFZEAgRL6mTNRM-78">
          <mxGeometry y="30" width="779" height="30" as="geometry" />
        </mxCell>
        <mxCell id="R6HIY-eFZEAgRL6mTNRM-80" value="N." style="shape=partialRectangle;connectable=0;fillColor=none;top=0;left=0;bottom=0;right=0;fontStyle=1;overflow=hidden;whiteSpace=wrap;html=1;" vertex="1" parent="R6HIY-eFZEAgRL6mTNRM-79">
          <mxGeometry width="30" height="30" as="geometry">
            <mxRectangle width="30" height="30" as="alternateBounds" />
          </mxGeometry>
        </mxCell>
        <mxCell id="R6HIY-eFZEAgRL6mTNRM-81" value="Marca" style="shape=partialRectangle;connectable=0;fillColor=none;top=0;left=0;bottom=0;right=0;align=left;spacingLeft=6;fontStyle=5;overflow=hidden;whiteSpace=wrap;html=1;" vertex="1" parent="R6HIY-eFZEAgRL6mTNRM-79">
          <mxGeometry x="30" width="150" height="30" as="geometry">
            <mxRectangle width="150" height="30" as="alternateBounds" />
          </mxGeometry>
        </mxCell>
        <mxCell id="R6HIY-eFZEAgRL6mTNRM-97" value="Nome" style="shape=partialRectangle;connectable=0;fillColor=none;top=0;left=0;bottom=0;right=0;align=left;spacingLeft=6;fontStyle=5;overflow=hidden;whiteSpace=wrap;html=1;" vertex="1" parent="R6HIY-eFZEAgRL6mTNRM-79">
          <mxGeometry x="180" width="181" height="30" as="geometry">
            <mxRectangle width="181" height="30" as="alternateBounds" />
          </mxGeometry>
        </mxCell>
        <mxCell id="R6HIY-eFZEAgRL6mTNRM-101" value="Anno" style="shape=partialRectangle;connectable=0;fillColor=none;top=0;left=0;bottom=0;right=0;align=left;spacingLeft=6;fontStyle=5;overflow=hidden;whiteSpace=wrap;html=1;" vertex="1" parent="R6HIY-eFZEAgRL6mTNRM-79">
          <mxGeometry x="361" width="209" height="30" as="geometry">
            <mxRectangle width="209" height="30" as="alternateBounds" />
          </mxGeometry>
        </mxCell>
        <mxCell id="R6HIY-eFZEAgRL6mTNRM-110" value="Descrizione" style="shape=partialRectangle;connectable=0;fillColor=none;top=0;left=0;bottom=0;right=0;align=left;spacingLeft=6;fontStyle=5;overflow=hidden;whiteSpace=wrap;html=1;" vertex="1" parent="R6HIY-eFZEAgRL6mTNRM-79">
          <mxGeometry x="570" width="209" height="30" as="geometry">
            <mxRectangle width="209" height="30" as="alternateBounds" />
          </mxGeometry>
        </mxCell>
        <mxCell id="R6HIY-eFZEAgRL6mTNRM-82" value="" style="shape=tableRow;horizontal=0;startSize=0;swimlaneHead=0;swimlaneBody=0;fillColor=none;collapsible=0;dropTarget=0;points=[[0,0.5],[1,0.5]];portConstraint=eastwest;top=0;left=0;right=0;bottom=0;" vertex="1" parent="R6HIY-eFZEAgRL6mTNRM-78">
          <mxGeometry y="60" width="779" height="30" as="geometry" />
        </mxCell>
        <mxCell id="R6HIY-eFZEAgRL6mTNRM-83" value="1" style="shape=partialRectangle;connectable=0;fillColor=none;top=0;left=0;bottom=0;right=0;editable=1;overflow=hidden;whiteSpace=wrap;html=1;" vertex="1" parent="R6HIY-eFZEAgRL6mTNRM-82">
          <mxGeometry width="30" height="30" as="geometry">
            <mxRectangle width="30" height="30" as="alternateBounds" />
          </mxGeometry>
        </mxCell>
        <mxCell id="R6HIY-eFZEAgRL6mTNRM-84" value="Mercedes" style="shape=partialRectangle;connectable=0;fillColor=none;top=0;left=0;bottom=0;right=0;align=left;spacingLeft=6;overflow=hidden;whiteSpace=wrap;html=1;" vertex="1" parent="R6HIY-eFZEAgRL6mTNRM-82">
          <mxGeometry x="30" width="150" height="30" as="geometry">
            <mxRectangle width="150" height="30" as="alternateBounds" />
          </mxGeometry>
        </mxCell>
        <mxCell id="R6HIY-eFZEAgRL6mTNRM-98" value="&amp;nbsp;VARCHAR(numero),&amp;nbsp;NOTNULL" style="shape=partialRectangle;connectable=0;fillColor=none;top=0;left=0;bottom=0;right=0;align=left;spacingLeft=6;overflow=hidden;whiteSpace=wrap;html=1;" vertex="1" parent="R6HIY-eFZEAgRL6mTNRM-82">
          <mxGeometry x="180" width="181" height="30" as="geometry">
            <mxRectangle width="181" height="30" as="alternateBounds" />
          </mxGeometry>
        </mxCell>
        <mxCell id="R6HIY-eFZEAgRL6mTNRM-102" value="YEAR" style="shape=partialRectangle;connectable=0;fillColor=none;top=0;left=0;bottom=0;right=0;align=left;spacingLeft=6;overflow=hidden;whiteSpace=wrap;html=1;" vertex="1" parent="R6HIY-eFZEAgRL6mTNRM-82">
          <mxGeometry x="361" width="209" height="30" as="geometry">
            <mxRectangle width="209" height="30" as="alternateBounds" />
          </mxGeometry>
        </mxCell>
        <mxCell id="R6HIY-eFZEAgRL6mTNRM-111" value="TEXT" style="shape=partialRectangle;connectable=0;fillColor=none;top=0;left=0;bottom=0;right=0;align=left;spacingLeft=6;overflow=hidden;whiteSpace=wrap;html=1;" vertex="1" parent="R6HIY-eFZEAgRL6mTNRM-82">
          <mxGeometry x="570" width="209" height="30" as="geometry">
            <mxRectangle width="209" height="30" as="alternateBounds" />
          </mxGeometry>
        </mxCell>
        <mxCell id="R6HIY-eFZEAgRL6mTNRM-85" value="" style="shape=tableRow;horizontal=0;startSize=0;swimlaneHead=0;swimlaneBody=0;fillColor=none;collapsible=0;dropTarget=0;points=[[0,0.5],[1,0.5]];portConstraint=eastwest;top=0;left=0;right=0;bottom=0;" vertex="1" parent="R6HIY-eFZEAgRL6mTNRM-78">
          <mxGeometry y="90" width="779" height="30" as="geometry" />
        </mxCell>
        <mxCell id="R6HIY-eFZEAgRL6mTNRM-86" value="2" style="shape=partialRectangle;connectable=0;fillColor=none;top=0;left=0;bottom=0;right=0;editable=1;overflow=hidden;whiteSpace=wrap;html=1;" vertex="1" parent="R6HIY-eFZEAgRL6mTNRM-85">
          <mxGeometry width="30" height="30" as="geometry">
            <mxRectangle width="30" height="30" as="alternateBounds" />
          </mxGeometry>
        </mxCell>
        <mxCell id="R6HIY-eFZEAgRL6mTNRM-87" value="Tesla" style="shape=partialRectangle;connectable=0;fillColor=none;top=0;left=0;bottom=0;right=0;align=left;spacingLeft=6;overflow=hidden;whiteSpace=wrap;html=1;" vertex="1" parent="R6HIY-eFZEAgRL6mTNRM-85">
          <mxGeometry x="30" width="150" height="30" as="geometry">
            <mxRectangle width="150" height="30" as="alternateBounds" />
          </mxGeometry>
        </mxCell>
        <mxCell id="R6HIY-eFZEAgRL6mTNRM-99" value="VARCHAR(10),&amp;nbsp;NOTNULL" style="shape=partialRectangle;connectable=0;fillColor=none;top=0;left=0;bottom=0;right=0;align=left;spacingLeft=6;overflow=hidden;whiteSpace=wrap;html=1;" vertex="1" parent="R6HIY-eFZEAgRL6mTNRM-85">
          <mxGeometry x="180" width="181" height="30" as="geometry">
            <mxRectangle width="181" height="30" as="alternateBounds" />
          </mxGeometry>
        </mxCell>
        <mxCell id="R6HIY-eFZEAgRL6mTNRM-103" value="YEAR" style="shape=partialRectangle;connectable=0;fillColor=none;top=0;left=0;bottom=0;right=0;align=left;spacingLeft=6;overflow=hidden;whiteSpace=wrap;html=1;" vertex="1" parent="R6HIY-eFZEAgRL6mTNRM-85">
          <mxGeometry x="361" width="209" height="30" as="geometry">
            <mxRectangle width="209" height="30" as="alternateBounds" />
          </mxGeometry>
        </mxCell>
        <mxCell id="R6HIY-eFZEAgRL6mTNRM-112" value="TEXT" style="shape=partialRectangle;connectable=0;fillColor=none;top=0;left=0;bottom=0;right=0;align=left;spacingLeft=6;overflow=hidden;whiteSpace=wrap;html=1;" vertex="1" parent="R6HIY-eFZEAgRL6mTNRM-85">
          <mxGeometry x="570" width="209" height="30" as="geometry">
            <mxRectangle width="209" height="30" as="alternateBounds" />
          </mxGeometry>
        </mxCell>
        <mxCell id="R6HIY-eFZEAgRL6mTNRM-105" value="" style="shape=tableRow;horizontal=0;startSize=0;swimlaneHead=0;swimlaneBody=0;fillColor=none;collapsible=0;dropTarget=0;points=[[0,0.5],[1,0.5]];portConstraint=eastwest;top=0;left=0;right=0;bottom=0;" vertex="1" parent="R6HIY-eFZEAgRL6mTNRM-78">
          <mxGeometry y="120" width="779" height="30" as="geometry" />
        </mxCell>
        <mxCell id="R6HIY-eFZEAgRL6mTNRM-106" value="3" style="shape=partialRectangle;connectable=0;fillColor=none;top=0;left=0;bottom=0;right=0;editable=1;overflow=hidden;whiteSpace=wrap;html=1;" vertex="1" parent="R6HIY-eFZEAgRL6mTNRM-105">
          <mxGeometry width="30" height="30" as="geometry">
            <mxRectangle width="30" height="30" as="alternateBounds" />
          </mxGeometry>
        </mxCell>
        <mxCell id="R6HIY-eFZEAgRL6mTNRM-107" value="BMW" style="shape=partialRectangle;connectable=0;fillColor=none;top=0;left=0;bottom=0;right=0;align=left;spacingLeft=6;overflow=hidden;whiteSpace=wrap;html=1;" vertex="1" parent="R6HIY-eFZEAgRL6mTNRM-105">
          <mxGeometry x="30" width="150" height="30" as="geometry">
            <mxRectangle width="150" height="30" as="alternateBounds" />
          </mxGeometry>
        </mxCell>
        <mxCell id="R6HIY-eFZEAgRL6mTNRM-108" value="VARCHAR(numero),&amp;nbsp;NOTNULL" style="shape=partialRectangle;connectable=0;fillColor=none;top=0;left=0;bottom=0;right=0;align=left;spacingLeft=6;overflow=hidden;whiteSpace=wrap;html=1;" vertex="1" parent="R6HIY-eFZEAgRL6mTNRM-105">
          <mxGeometry x="180" width="181" height="30" as="geometry">
            <mxRectangle width="181" height="30" as="alternateBounds" />
          </mxGeometry>
        </mxCell>
        <mxCell id="R6HIY-eFZEAgRL6mTNRM-109" value="YEAR" style="shape=partialRectangle;connectable=0;fillColor=none;top=0;left=0;bottom=0;right=0;align=left;spacingLeft=6;overflow=hidden;whiteSpace=wrap;html=1;" vertex="1" parent="R6HIY-eFZEAgRL6mTNRM-105">
          <mxGeometry x="361" width="209" height="30" as="geometry">
            <mxRectangle width="209" height="30" as="alternateBounds" />
          </mxGeometry>
        </mxCell>
        <mxCell id="R6HIY-eFZEAgRL6mTNRM-113" value="TEXT" style="shape=partialRectangle;connectable=0;fillColor=none;top=0;left=0;bottom=0;right=0;align=left;spacingLeft=6;overflow=hidden;whiteSpace=wrap;html=1;" vertex="1" parent="R6HIY-eFZEAgRL6mTNRM-105">
          <mxGeometry x="570" width="209" height="30" as="geometry">
            <mxRectangle width="209" height="30" as="alternateBounds" />
          </mxGeometry>
        </mxCell>
        <mxCell id="R6HIY-eFZEAgRL6mTNRM-88" value="" style="shape=tableRow;horizontal=0;startSize=0;swimlaneHead=0;swimlaneBody=0;fillColor=none;collapsible=0;dropTarget=0;points=[[0,0.5],[1,0.5]];portConstraint=eastwest;top=0;left=0;right=0;bottom=0;" vertex="1" parent="R6HIY-eFZEAgRL6mTNRM-78">
          <mxGeometry y="150" width="779" height="30" as="geometry" />
        </mxCell>
        <mxCell id="R6HIY-eFZEAgRL6mTNRM-89" value="4" style="shape=partialRectangle;connectable=0;fillColor=none;top=0;left=0;bottom=0;right=0;editable=1;overflow=hidden;whiteSpace=wrap;html=1;" vertex="1" parent="R6HIY-eFZEAgRL6mTNRM-88">
          <mxGeometry width="30" height="30" as="geometry">
            <mxRectangle width="30" height="30" as="alternateBounds" />
          </mxGeometry>
        </mxCell>
        <mxCell id="R6HIY-eFZEAgRL6mTNRM-90" value="Audi" style="shape=partialRectangle;connectable=0;fillColor=none;top=0;left=0;bottom=0;right=0;align=left;spacingLeft=6;overflow=hidden;whiteSpace=wrap;html=1;" vertex="1" parent="R6HIY-eFZEAgRL6mTNRM-88">
          <mxGeometry x="30" width="150" height="30" as="geometry">
            <mxRectangle width="150" height="30" as="alternateBounds" />
          </mxGeometry>
        </mxCell>
        <mxCell id="R6HIY-eFZEAgRL6mTNRM-100" value="VARCHAR(numero),&amp;nbsp;NOTNULL" style="shape=partialRectangle;connectable=0;fillColor=none;top=0;left=0;bottom=0;right=0;align=left;spacingLeft=6;overflow=hidden;whiteSpace=wrap;html=1;" vertex="1" parent="R6HIY-eFZEAgRL6mTNRM-88">
          <mxGeometry x="180" width="181" height="30" as="geometry">
            <mxRectangle width="181" height="30" as="alternateBounds" />
          </mxGeometry>
        </mxCell>
        <mxCell id="R6HIY-eFZEAgRL6mTNRM-104" value="YEAR" style="shape=partialRectangle;connectable=0;fillColor=none;top=0;left=0;bottom=0;right=0;align=left;spacingLeft=6;overflow=hidden;whiteSpace=wrap;html=1;" vertex="1" parent="R6HIY-eFZEAgRL6mTNRM-88">
          <mxGeometry x="361" width="209" height="30" as="geometry">
            <mxRectangle width="209" height="30" as="alternateBounds" />
          </mxGeometry>
        </mxCell>
        <mxCell id="R6HIY-eFZEAgRL6mTNRM-114" value="TEXT" style="shape=partialRectangle;connectable=0;fillColor=none;top=0;left=0;bottom=0;right=0;align=left;spacingLeft=6;overflow=hidden;whiteSpace=wrap;html=1;" vertex="1" parent="R6HIY-eFZEAgRL6mTNRM-88">
          <mxGeometry x="570" width="209" height="30" as="geometry">
            <mxRectangle width="209" height="30" as="alternateBounds" />
          </mxGeometry>
        </mxCell>
      </root>
    </mxGraphModel>
  </diagram>
</mxfile>
